<svg width="16" height="16" viewBox="0 0 16 16" xmlns="http://www.w3.org/2000/svg">
    <path d="M12.2 7.76C13.4633 6.99429 14.3488 5.73714 14.3488 4.57143C14.3488 1.98857 12.0698 0 9.13953 0H1V16H10.1684C12.8902 16 15 14.0571 15 11.6686C15 9.93143 13.88 8.44571 12.2 7.76ZM4.90698 2.85714H8.81395C9.89488 2.85714 10.7674 3.62286 10.7674 4.57143C10.7674 5.52 9.89488 6.28571 8.81395 6.28571H4.90698V2.85714ZM9.46512 13.1429H4.90698V9.71429H9.46512C10.546 9.71429 11.4186 10.48 11.4186 11.4286C11.4186 12.3771 10.546 13.1429 9.46512 13.1429Z" />
</svg>
