<svg width="16" height="16" viewBox="0 0 16 16" xmlns="http://www.w3.org/2000/svg">
    <g clip-path="url(#clip0_2332_459)">
        <path fill-rule="evenodd" clip-rule="evenodd" d="M6 15V13H16V15H6ZM6 7H16V9H6V7ZM6 1H16V3H6V1ZM2 16C0.9 16 0 15.1 0 14C0 12.9 0.9 12 2 12C3.1 12 4 12.9 4 14C4 15.1 3.1 16 2 16ZM2 10C0.9 10 0 9.1 0 8C0 6.9 0.9 6 2 6C3.1 6 4 6.9 4 8C4 9.1 3.1 10 2 10ZM2 4C0.9 4 0 3.1 0 2C0 0.9 0.9 0 2 0C3.1 0 4 0.9 4 2C4 3.1 3.1 4 2 4Z" />
    </g>
    <defs>
        <clipPath id="clip0_2332_459">
            <rect width="16" height="16" fill="white"/>
        </clipPath>
    </defs>
</svg>
