<svg width="16" height="16" viewBox="0 0 16 16" xmlns="http://www.w3.org/2000/svg">
    <g clip-path="url(#clip0_1791_450)">
        <mask id="mask0_1791_450" style="mask-type:luminance" maskUnits="userSpaceOnUse" x="0" y="0" width="16" height="16">
            <path d="M16 0H0V16H16V0Z" fill="white"/>
        </mask>
        <g mask="url(#mask0_1791_450)">
            <path d="M3 13.9998H10V4.99988H3M3 2.99988H10C11.1 2.99988 12 3.89988 12 4.99988V13.9998C12 15.0998 11.1 15.9998 10 15.9998H3C1.9 15.9998 1 15.0998 1 13.9998V4.99988C1 3.89988 1.9 2.99988 3 2.99988ZM7 -0.00012207H13C14.1 -0.00012207 15 0.899878 15 1.99988C15 1.99988 15 6.87568 15 9.99988C15 11.9998 13 11.9998 13 11.9998V1.99988H5C5 1.99988 5 -9.89139e-05 7 -0.00012207Z" fill="black"/>
        </g>
    </g>
    <defs>
        <clipPath id="clip0_1791_450">
            <rect width="16" height="16" fill="white"/>
        </clipPath>
    </defs>
</svg>
