<svg width="16" height="16" viewBox="0 0 16 16" xmlns="http://www.w3.org/2000/svg">
    <g clip-path="url(#clip0_2332_533)">
        <path d="M8 0C3.5816 0 0 3.5816 0 8C0 12.4184 3.5816 16 8 16C12.4184 16 16 12.4184 16 8C16 3.5816 12.4184 0 8 0ZM8 1.6C11.5344 1.6 14.4 4.4656 14.4 8C14.4 11.5344 11.5344 14.4 8 14.4C4.4656 14.4 1.6 11.5344 1.6 8C1.6 4.4656 4.4656 1.6 8 1.6ZM5.2 4.8C4.88174 4.8 4.57652 4.92643 4.35147 5.15147C4.12643 5.37652 4 5.68174 4 6C4 6.31826 4.12643 6.62348 4.35147 6.84853C4.57652 7.07357 4.88174 7.2 5.2 7.2C5.51826 7.2 5.82348 7.07357 6.04853 6.84853C6.27357 6.62348 6.4 6.31826 6.4 6C6.4 5.68174 6.27357 5.37652 6.04853 5.15147C5.82348 4.92643 5.51826 4.8 5.2 4.8ZM10.8 4.8C10.4817 4.8 10.1765 4.92643 9.95147 5.15147C9.72643 5.37652 9.6 5.68174 9.6 6C9.6 6.31826 9.72643 6.62348 9.95147 6.84853C10.1765 7.07357 10.4817 7.2 10.8 7.2C11.1183 7.2 11.4235 7.07357 11.6485 6.84853C11.8736 6.62348 12 6.31826 12 6C12 5.68174 11.8736 5.37652 11.6485 5.15147C11.4235 4.92643 11.1183 4.8 10.8 4.8ZM3.9125 9.6C4.5525 11.232 6.136 12.4 8 12.4C9.864 12.4 11.4475 11.232 12.0875 9.6H3.9125Z" />
    </g>
    <defs>
        <clipPath id="clip0_2332_533">
            <rect width="16" height="16" fill="white"/>
        </clipPath>
    </defs>
</svg>
