<svg width="16" height="16" viewBox="0 0 16 16" xmlns="http://www.w3.org/2000/svg">
    <path d="M6.69873 9.19994H8.67202L9.3 6.89994H7.3L6.69873 9.19994ZM13 0.999939H3C1.9 0.999939 1 1.89994 1 2.99994V12.9999C1 14.0999 1.9 14.9999 3 14.9999H13C14.1 14.9999 15 14.0999 15 12.9999V2.99994C15 1.89994 14.1 0.999939 13 0.999939ZM12.7 6.89994H11L10.4088 9.19994H12.3L12 10.7999H10.0884L9.5 12.9999H7.7L8.3 10.7999H6.3L5.63672 12.9999H4L4.6 10.7999H3L3.4 9.19994H5L5.5 6.89994H3.6L4 5.29994H5.9L6.5 2.99994H8.3L7.64483 5.29994H9.6L10.3 2.99994H12L11.2682 5.29994H13L12.7 6.89994Z" />
</svg>
