<svg width="16" height="16" viewBox="0 0 16 16" xmlns="http://www.w3.org/2000/svg">
    <g clip-path="url(#clip0_2327_427)">
        <path d="M10.7266 -0.00144637C10.5229 -5.95114e-05 10.3178 0.0792517 10.1617 0.235373L9.97594 0.421114C9.97246 0.42449 9.96853 0.426968 9.9651 0.430401L6.24564 4.1514L5.68533 4.71172L5.12501 5.27204L4.11118 6.28587C3.43978 6.95727 3.43978 8.06935 4.11118 8.74075L4.56469 9.19426L4.33097 9.42799C4.00508 9.75387 3.61196 9.93503 3.03698 10.2205C2.46199 10.5059 1.74168 10.8966 1.00157 11.6368C0.4362 12.2021 0.0890478 12.8551 0.0140467 13.5267C-0.060954 14.1982 0.166657 14.8835 0.642469 15.3593C1.1184 15.8352 1.80373 16.0613 2.47511 15.9862C3.14649 15.9111 3.79815 15.5651 4.36347 15.0002H4.36502C5.10514 14.2601 5.49585 13.5398 5.78129 12.9648C6.06674 12.3898 6.2479 11.9967 6.57379 11.6708L6.80751 11.4371L7.26103 11.8906C7.93242 12.562 9.0445 12.562 9.7159 11.8906L11.8519 9.75613L11.8504 9.75458L13.245 8.35843L15.5683 6.03358C15.573 6.02881 15.576 6.02294 15.5807 6.0181L15.7633 5.83545C16.0763 5.52242 16.0794 5.0177 15.7695 4.70863L15.5683 4.50741L11.4913 0.430401C11.4889 0.428016 11.4859 0.426567 11.4835 0.424209L11.287 0.227634C11.1328 0.07389 10.9304 -0.00283324 10.7266 -0.00144637ZM9.58278 3.05399C10.575 3.44469 9.47959 4.51248 9.72209 4.85722C9.93131 5.1552 10.4958 5.09873 11.2637 4.73339C11.6251 4.56142 11.8713 4.53952 12.0036 4.58944C12.9435 4.94527 10.4169 6.41962 11.2498 6.98704C11.3829 7.07818 11.8577 7.07575 12.4029 6.95609L12.259 7.10158L10.7282 8.63395L7.36628 5.27204L9.3212 3.31557L9.3243 3.31867L9.55957 3.0772L9.58278 3.05399ZM6.24564 6.39267L9.6091 9.75613L8.59526 10.77C8.52964 10.8356 8.44729 10.8356 8.38166 10.77L6.80751 9.19581L5.45315 10.5486C4.89144 11.1103 4.62885 11.7213 4.36193 12.259C4.095 12.7967 3.82615 13.2978 3.24439 13.8796C2.88091 14.2427 2.54083 14.3849 2.29866 14.412C2.05649 14.4391 1.90611 14.3817 1.7631 14.2387C1.61998 14.0955 1.56271 13.9452 1.58975 13.7031C1.61678 13.4611 1.75877 13.1224 2.1222 12.7589C2.70397 12.1772 3.20511 11.9068 3.74279 11.6398C4.28046 11.3729 4.89144 11.1103 5.45315 10.5486L6.80596 9.19426L5.23181 7.62011C5.16619 7.55448 5.16619 7.47213 5.23181 7.40651L6.24564 6.39267Z" />
    </g>
    <defs>
        <clipPath id="clip0_2327_427">
            <rect width="16" height="16" />
        </clipPath>
    </defs>
</svg>
