<svg width="16" height="16" viewBox="0 0 16 16" xmlns="http://www.w3.org/2000/svg">
    <g clip-path="url(#clip0_1969_902)">
        <mask id="mask0_1969_902" style="mask-type:luminance" maskUnits="userSpaceOnUse" x="0" y="0" width="16" height="16">
            <path d="M16 0H0V16H16V0Z" fill="white"/>
        </mask>
        <g mask="url(#mask0_1969_902)">
            <path d="M10 5H2V2H10V5ZM8 14C6.3 14 5 12.7 5 11C5 9.3 6.3 8 8 8C9.7 8 11 9.3 11 11C11 12.7 9.7 14 8 14ZM12 0H2C0.9 0 0 0.9 0 2V14C0 15.1 0.9 16 2 16H14C15.1 16 16 15.1 16 14V4L12 0Z" fill="black"/>
        </g>
    </g>
    <defs>
        <clipPath id="clip0_1969_902">
            <rect width="16" height="16" fill="white"/>
        </clipPath>
    </defs>
</svg>
