<svg width="20" height="20" viewBox="0 0 20 20" fill="none" xmlns="http://www.w3.org/2000/svg">
    <path fill-rule="evenodd" clip-rule="evenodd" d="M10.5 2.5C10.5 2.22386 10.2761 2 10 2C9.72386 2 9.5 2.22386 9.5 2.5V3.00002C7.56579 3.00711 6 4.57727 6 6.51314C6 7.9185 6.83752 9.18864 8.12925 9.74223L9.5 10.3297V15.9585C8.08114 15.7205 7 14.4865 7 13V12.5C7 12.2239 6.77614 12 6.5 12C6.22386 12 6 12.2239 6 12.5V13C6 15.0398 7.52684 16.723 9.5 16.9691V17.5C9.5 17.7761 9.72386 18 10 18C10.2761 18 10.5 17.7761 10.5 17.5V17C12.4342 16.9929 14 15.4227 14 13.4869C14 12.0815 13.1625 10.8114 11.8707 10.2578L10.5 9.6703V4.04148C11.9189 4.27952 13 5.5135 13 7V7.5C13 7.77614 13.2239 8 13.5 8C13.7761 8 14 7.77614 14 7.5V7C14 4.96019 12.4732 3.277 10.5 3.03095V2.5ZM9.5 4.00003C8.11808 4.00711 7 5.12956 7 6.51314C7 7.51847 7.59913 8.42707 8.52317 8.82309L9.5 9.24173V4.00003ZM10.5 10.7583V16C11.8819 15.9929 13 14.8704 13 13.4869C13 12.4815 12.4009 11.5729 11.4768 11.1769L10.5 10.7583Z" fill="black"/>
</svg>

