<svg width="16" height="16" viewBox="0 0 16 16" fill="none" xmlns="http://www.w3.org/2000/svg">
<g clip-path="url(#clip0_3_2356)">
<path d="M7.00244 4C7.00244 3.44772 7.45016 3 8.00244 3C8.55473 3 9.00244 3.44772 9.00244 4V7H11.0024C11.5547 7 12.0024 7.44772 12.0024 8C12.0024 8.55229 11.5547 9 11.0024 9H8.00244C7.45016 9 7.00244 8.55228 7.00244 8V4Z" fill="black"/>
<path fill-rule="evenodd" clip-rule="evenodd" d="M8.00244 16C12.4207 16 16.0024 12.4183 16.0024 8C16.0024 3.58172 12.4207 0 8.00244 0C3.58416 0 0.00244141 3.58172 0.00244141 8C0.00244141 12.4183 3.58416 16 8.00244 16ZM8.00244 14C11.3161 14 14.0024 11.3137 14.0024 8C14.0024 4.68629 11.3161 2 8.00244 2C4.68873 2 2.00244 4.68629 2.00244 8C2.00244 11.3137 4.68873 14 8.00244 14Z" fill="black"/>
</g>
<defs>
<clipPath id="clip0_3_2356">
<rect width="16" height="16" fill="white"/>
</clipPath>
</defs>
</svg>
