<svg width="20" height="20" viewBox="0 0 20 20" fill="none" xmlns="http://www.w3.org/2000/svg">
    <path fill-rule="evenodd" clip-rule="evenodd" d="M15.0381 14.7212C14.3413 15.3108 13.5212 15.7177 12.6438 15.9043L12.6164 15.9101C11.5495 16.1312 10.4456 16.0172 9.43819 15.5822L9.39136 15.5618C8.38154 15.1144 7.51574 14.3626 6.89919 13.3985C6.88773 13.3806 6.87635 13.3626 6.86507 13.3445C6.42138 12.6344 6.12608 11.8348 5.99458 11H9.5C9.77614 11 10 10.7761 10 10.5C10 10.2239 9.77614 10 9.5 10L5.91638 10C5.91638 9.66342 5.94276 9.32898 5.99458 9H9.5C9.77614 9 10 8.77614 10 8.5C10 8.22386 9.77614 8 9.5 8H6.23612C6.39159 7.52796 6.6023 7.07602 6.86507 6.65547C6.87635 6.6374 6.88773 6.61941 6.89919 6.60149C7.51574 5.63743 8.38154 4.88557 9.39136 4.43825L9.43819 4.41777C10.4456 3.98279 11.5495 3.86883 12.6164 4.08994L12.6438 4.09568C13.5212 4.28234 14.3413 4.68925 15.0381 5.27878C15.0799 5.3141 15.1212 5.35008 15.162 5.38671C15.1776 5.40064 15.1938 5.41352 15.2105 5.42535C15.4146 5.56951 15.7003 5.55678 15.8739 5.37111C16.0431 5.19019 16.0443 4.90887 15.8636 4.73927C15.8433 4.72018 15.8229 4.70124 15.8023 4.68244C15.75 4.63449 15.6969 4.58747 15.6433 4.54139C14.8324 3.84522 13.8753 3.36336 12.8498 3.14038L12.8225 3.13451C11.5528 2.86441 10.2367 3.00303 9.04068 3.53285L8.99404 3.55373C7.81806 4.08607 6.81299 4.97486 6.10312 6.11101L6.06954 6.16532C5.72053 6.7353 5.45304 7.35367 5.27285 8H4.5C4.22386 8 4 8.22386 4 8.5C4 8.77614 4.22386 9 4.5 9H5.06713C5.02261 9.32987 5 9.66402 5 10L4.5 10C4.22386 10 4 10.2239 4 10.5C4 10.7761 4.22386 11 4.5 11H5.06713C5.2032 12.0081 5.54393 12.9763 6.06954 13.8347L6.10313 13.889C6.81299 15.0251 7.81806 15.9139 8.99404 16.4463L9.04068 16.4672C10.2367 16.997 11.5528 17.1356 12.8225 16.8655L12.8498 16.8596C13.8753 16.6366 14.8324 16.1548 15.6433 15.4586C15.6969 15.4125 15.75 15.3655 15.8023 15.3176C15.8229 15.2988 15.8433 15.2798 15.8636 15.2607C16.0443 15.0911 16.0431 14.8098 15.8739 14.6289C15.7003 14.4432 15.4146 14.4305 15.2105 14.5746C15.1938 14.5865 15.1776 14.5994 15.162 14.6133C15.1212 14.6499 15.0799 14.6859 15.0381 14.7212Z" fill="black"/>
</svg>
