<svg width="20" height="20" viewBox="0 0 20 20" xmlns="http://www.w3.org/2000/svg">
    <path fill-rule="evenodd" clip-rule="evenodd" d="M16 4H4C3.44772 4 3 4.44772 3 5V12C3 12.5523 3.44772 13 4 13H7.94197C8.33671 13 8.70119 13.2115 8.89704 13.5543L10 15.4844L11.103 13.5543C11.2988 13.2115 11.6633 13 12.058 13H16C16.5523 13 17 12.5523 17 12V5C17 4.44772 16.5523 4 16 4ZM4 3C2.89543 3 2 3.89543 2 5V12C2 13.1046 2.89543 14 4 14H7.94197C7.97785 14 8.01099 14.0192 8.02879 14.0504L9.56588 16.7403C9.75783 17.0762 10.2422 17.0762 10.4341 16.7403L11.9712 14.0504C11.989 14.0192 12.0221 14 12.058 14H16C17.1046 14 18 13.1046 18 12V5C18 3.89543 17.1046 3 16 3H4ZM6 7.00049C6 6.72435 6.22386 6.50049 6.5 6.50049H13.5C13.7761 6.50049 14 6.72435 14 7.00049C14 7.27663 13.7761 7.50049 13.5 7.50049H6.5C6.22386 7.50049 6 7.27663 6 7.00049ZM6.5 9.50049C6.22386 9.50049 6 9.72435 6 10.0005C6 10.2766 6.22386 10.5005 6.5 10.5005H13.5C13.7761 10.5005 14 10.2766 14 10.0005C14 9.72435 13.7761 9.50049 13.5 9.50049H6.5Z"/>
</svg>
