<?xml version="1.0" standalone="no"?>
<!DOCTYPE svg PUBLIC "-//W3C//DTD SVG 20010904//EN"
 "http://www.w3.org/TR/2001/REC-SVG-20010904/DTD/svg10.dtd">
<svg version="1.0" xmlns="http://www.w3.org/2000/svg"
 width="1171.000000pt" height="948.000000pt" viewBox="0 0 1171.000000 948.000000"
 preserveAspectRatio="xMidYMid meet">

<g transform="translate(0.000000,948.000000) scale(0.100000,-0.100000)"
fill="#000000" stroke="none">
<path d="M10 4735 l0 -4735 5845 0 5845 0 0 4735 0 4735 -5845 0 -5845 0 0
-4735z m11670 0 l0 -4715 -5825 0 -5825 0 0 4715 0 4715 5825 0 5825 0 0
-4715z"/>
<path d="M6216 6507 c-86 -145 -156 -268 -156 -274 0 -5 41 -84 91 -174 137
-247 209 -379 209 -383 0 -3 -141 -2 -313 1 -258 5 -314 3 -324 -8 -9 -12
-1230 -2146 -1262 -2206 l-12 -23 313 0 313 0 149 253 c132 222 370 629 461
787 231 403 670 1158 679 1167 8 9 92 13 324 13 328 2 328 2 298 45 -11 17
-178 306 -531 923 l-82 142 -157 -263z"/>
<path d="M6657 5048 c-20 -35 -93 -160 -161 -278 l-125 -215 237 -6 c130 -4
275 -7 322 -8 l86 -1 50 -87 c28 -49 97 -168 153 -266 57 -98 102 -180 100
-181 -2 -2 -433 -7 -957 -11 -524 -4 -951 -11 -950 -14 2 -4 68 -125 148 -269
l145 -262 1289 0 1288 0 -14 23 c-8 12 -94 164 -191 337 -98 173 -302 536
-455 805 l-277 490 -326 3 -325 2 -37 -62z"/>
<path d="M5382 3119 c-68 -20 -132 -113 -132 -190 0 -125 100 -207 237 -196
41 3 73 1 85 -6 25 -16 68 24 49 46 -9 12 -7 23 11 53 33 56 32 154 -1 207
-35 57 -88 88 -158 93 -32 2 -73 -1 -91 -7z m147 -87 c34 -25 53 -90 40 -137
-11 -40 -19 -43 -37 -15 -15 25 -21 25 -51 0 -22 -19 -22 -21 -7 -45 22 -33
21 -35 -16 -35 -42 0 -96 33 -108 66 -26 66 -3 150 48 179 34 19 96 13 131
-13z"/>
<path d="M3531 3098 c-13 -34 -132 -341 -138 -354 -7 -18 74 -16 92 2 8 9 15
24 15 35 0 17 8 19 88 19 l88 0 15 -32 c12 -29 19 -33 57 -35 23 -1 42 1 42 5
0 3 -32 91 -72 194 l-72 188 -53 0 c-46 0 -55 -3 -62 -22z m93 -142 c14 -37
26 -72 26 -77 0 -5 -27 -9 -61 -9 -54 0 -60 2 -54 18 4 9 15 41 26 70 19 55
29 75 34 70 2 -2 15 -34 29 -72z"/>
<path d="M3909 3113 c-4 -51 4 -370 11 -377 4 -4 60 -7 123 -5 98 4 120 7 144
25 52 39 53 137 1 165 -18 10 -18 11 7 40 35 43 34 92 -4 130 -29 29 -30 29
-155 29 -69 0 -126 -3 -127 -7z m225 -85 c21 -35 -4 -53 -78 -56 l-66 -3 0 41
0 41 66 -3 c51 -2 70 -7 78 -20z m-15 -138 c25 -13 33 -37 21 -61 -9 -16 -22
-19 -80 -19 l-70 0 0 45 0 45 56 0 c30 0 63 -4 73 -10z"/>
<path d="M4372 2928 l3 -193 35 0 35 0 3 68 3 67 32 0 c29 0 35 -6 68 -68 l35
-67 47 -1 c26 -1 47 0 47 1 0 2 -18 33 -40 69 -46 76 -47 82 -19 91 50 16 74
107 44 165 -25 49 -60 60 -185 60 l-110 0 2 -192z m214 97 c15 -23 15 -27 0
-50 -11 -17 -26 -25 -45 -25 -16 0 -43 -3 -60 -6 l-31 -6 0 56 0 56 60 0 c52
0 61 -3 76 -25z"/>
<path d="M4892 3038 c-17 -46 -49 -130 -71 -187 -22 -58 -38 -107 -36 -109 3
-3 22 -5 42 -6 34 -1 40 3 52 32 l15 32 83 0 84 0 14 -32 c12 -30 17 -33 59
-33 25 -1 46 -1 46 0 0 0 -33 86 -74 190 l-73 190 -55 3 -55 3 -31 -83z m118
-81 c10 -28 21 -60 25 -69 6 -16 0 -18 -54 -18 -34 0 -61 3 -61 7 0 4 12 42
27 85 30 84 32 84 63 -5z"/>
<path d="M6048 3064 c-16 -8 -28 -20 -29 -27 0 -7 -4 -2 -9 11 -7 16 -18 22
-40 22 l-30 0 0 -155 0 -155 40 0 40 0 0 108 c0 93 3 111 18 125 22 20 53 22
70 5 8 -8 12 -50 12 -125 l0 -113 40 0 40 0 0 120 c0 131 -9 164 -51 186 -35
18 -66 17 -101 -2z"/>
<path d="M6760 3063 c-14 -9 -30 -24 -37 -33 -11 -13 -12 -11 -13 13 0 24 -4
27 -35 27 l-35 0 0 -155 0 -155 45 0 46 0 -2 100 c-1 111 11 140 58 140 20 0
23 5 23 40 0 45 -11 50 -50 23z"/>
<path d="M6910 3058 c-72 -49 -63 -117 21 -163 56 -30 68 -48 48 -71 -12 -15
-53 -16 -99 -3 -11 3 -15 -4 -15 -26 0 -26 5 -30 38 -38 87 -21 157 21 157 93
0 46 -18 68 -80 100 -32 16 -41 26 -38 43 3 19 9 22 50 20 39 -1 47 2 52 20 7
29 -4 38 -56 44 -34 4 -50 0 -78 -19z"/>
<path d="M7201 3062 c-55 -27 -75 -63 -79 -140 -3 -57 0 -72 20 -102 36 -53
81 -72 153 -66 68 7 77 13 68 44 -5 21 -10 22 -47 17 -65 -10 -115 15 -116 58
0 15 11 17 89 17 99 0 104 3 94 67 -8 53 -32 90 -69 108 -42 20 -71 19 -113
-3z m91 -59 c10 -9 18 -24 18 -35 0 -15 -8 -18 -55 -18 -48 0 -55 3 -55 19 0
45 57 66 92 34z"/>
<path d="M7559 3051 l-29 -29 -6 24 c-5 18 -13 24 -35 24 l-29 0 0 -155 0
-155 40 0 40 0 0 98 c0 113 12 142 61 142 27 0 29 2 29 40 0 34 -3 40 -21 40
-11 0 -34 -13 -50 -29z"/>
<path d="M7921 3063 c-60 -31 -76 -64 -76 -153 0 -74 2 -81 30 -110 36 -37 92
-54 156 -45 55 8 60 12 52 44 -5 19 -10 21 -47 16 -65 -10 -115 15 -116 58 0
15 11 17 89 17 102 0 105 3 92 76 -17 91 -104 137 -180 97z m91 -60 c10 -9 18
-24 18 -35 0 -15 -8 -18 -55 -18 -48 0 -55 3 -55 19 0 45 57 66 92 34z"/>
<path d="M8213 3060 c-33 -20 -54 -68 -45 -103 5 -19 44 -54 91 -79 64 -35 21
-84 -54 -61 -31 10 -34 9 -40 -15 -9 -36 7 -46 74 -47 72 0 112 24 125 78 12
48 -9 79 -75 112 -40 21 -50 30 -47 48 3 19 9 22 53 22 46 0 50 2 53 26 3 22
-2 27 -29 33 -51 10 -72 7 -106 -14z"/>
<path d="M6292 2943 c4 -136 12 -162 55 -182 35 -16 64 -13 101 9 39 24 42 24
42 5 0 -10 11 -15 35 -15 l35 0 0 156 0 155 -41 -3 -42 -3 2 -95 c2 -107 -10
-144 -49 -148 -49 -5 -55 8 -58 133 l-4 115 -40 0 -40 0 4 -127z"/>
</g>
</svg>
