<svg width="20" height="20" viewBox="0 0 20 20" xmlns="http://www.w3.org/2000/svg">
    <path fill-rule="evenodd" clip-rule="evenodd" d="M4 4C4 3.54909 4.14922 3.13302 4.40098 2.7985C4.76593 2.31358 5.34634 2 6 2H16C17.1046 2 18 2.89543 18 4V6C18 6.74028 17.5978 7.38663 17 7.73244C16.7058 7.90261 16.3643 8 16 8H6C4.89543 8 4 7.10457 4 6V4ZM16 9L3 9V4.26757C2.81178 4.37644 2.64296 4.51511 2.49997 4.67712C2.18881 5.02969 2 5.4928 2 6V16C2 17.1046 2.89543 18 4 18H14C15.1046 18 16 17.1046 16 16V9ZM3 14V16C3 16.5523 3.44771 17 4 17H14C14.5523 17 15 16.5523 15 16V14H3ZM6 3C5.44772 3 5 3.44772 5 4V6C5 6.55228 5.44772 7 6 7H16C16.5523 7 17 6.55228 17 6V4C17 3.44772 16.5523 3 16 3H6ZM15 10V13H3V10H15Z"/>
</svg>
