<svg width="48" height="48" viewBox="0 0 48 48" xmlns="http://www.w3.org/2000/svg">
    <path d="M10.875 3C9.83947 3 9 3.83947 9 4.875C9 5.91053 9.83947 6.75 10.875 6.75H37.125C38.1605 6.75 39 5.91053 39 4.875C39 3.83947 38.1605 3 37.125 3H10.875ZM25.3258 10.2992C24.5936 9.56694 23.4064 9.56694 22.6742 10.2992L12.5492 20.4242C11.8169 21.1564 11.8169 22.3436 12.5492 23.0758C13.2814 23.8081 14.4686 23.8081 15.2008 23.0758L22.125 16.1517V43.125C22.125 44.1605 22.9645 45 24 45C25.0355 45 25.875 44.1605 25.875 43.125V16.1517L32.7992 23.0758C33.5314 23.8081 34.7186 23.8081 35.4508 23.0758C36.1831 22.3436 36.1831 21.1564 35.4508 20.4242L25.3258 10.2992Z"/>
</svg>
