<svg width="20" height="20" viewBox="0 0 20 20" xmlns="http://www.w3.org/2000/svg">
    <path fill-rule="evenodd" clip-rule="evenodd" d="M8 5H12V10H8V5ZM13 10V5H15C15.5523 5 16 5.44772 16 6V9C16 9.55229 15.5523 10 15 10H13ZM7 5H5C4.44772 5 4 5.44772 4 6V9C4 9.55229 4.44772 10 5 10H7V5ZM3 6C3 4.89543 3.89543 4 5 4H15C16.1046 4 17 4.89543 17 6V9C17 10.1046 16.1046 11 15 11H5C3.89543 11 3 10.1046 3 9V6ZM5.35355 12.8536C5.54882 12.6583 5.54882 12.3417 5.35355 12.1464C5.15829 11.9512 4.84171 11.9512 4.64645 12.1464L3.14645 13.6464C2.95118 13.8417 2.95118 14.1583 3.14645 14.3536L4.64645 15.8536C4.84171 16.0488 5.15829 16.0488 5.35355 15.8536C5.54882 15.6583 5.54882 15.3417 5.35355 15.1464L4.70711 14.5H15.2929L14.6464 15.1464C14.4512 15.3417 14.4512 15.6583 14.6464 15.8536C14.8417 16.0488 15.1583 16.0488 15.3536 15.8536L16.8536 14.3536C17.0488 14.1583 17.0488 13.8417 16.8536 13.6464L15.3536 12.1464C15.1583 11.9512 14.8417 11.9512 14.6464 12.1464C14.4512 12.3417 14.4512 12.6583 14.6464 12.8536L15.2929 13.5H4.70711L5.35355 12.8536Z"/>
</svg>

