<svg width="20" height="20" viewBox="0 0 20 20" fill="none" xmlns="http://www.w3.org/2000/svg">
    <path fill-rule="evenodd" clip-rule="evenodd" d="M2.00001 5.50354C2.00001 5.2274 2.22387 5.00354 2.50001 5.00354H17.5C17.7762 5.00354 18 5.2274 18 5.50354C18 5.77968 17.7762 6.00354 17.5 6.00354H2.50001C2.22387 6.00354 2.00001 5.77968 2.00001 5.50354Z" fill="black"/>
    <path fill-rule="evenodd" clip-rule="evenodd" d="M1.99951 14.5172C1.99951 14.2411 2.22337 14.0172 2.49951 14.0172H17.4995C17.7757 14.0172 17.9995 14.2411 17.9995 14.5172C17.9995 14.7934 17.7757 15.0172 17.4995 15.0172H2.49951C2.22337 15.0172 1.99951 14.7934 1.99951 14.5172Z" fill="black"/>
    <path fill-rule="evenodd" clip-rule="evenodd" d="M2.00049 8.50476C2.00089 8.22862 2.22508 8.00509 2.50122 8.00549L4.50073 8.01135C4.77687 8.01176 5.0004 8.23594 5 8.51208C4.99959 8.78823 4.77541 9.01176 4.49927 9.01135L2.49976 9.00549C2.22361 9.00509 2.00008 8.7809 2.00049 8.50476Z" fill="black"/>
    <path fill-rule="evenodd" clip-rule="evenodd" d="M15.0015 8.51257C15.0019 8.23643 15.2261 8.0129 15.5022 8.01331L17.5017 8.01917C17.7779 8.01957 18.0014 8.24376 18.001 8.5199C18.0006 8.79604 17.7764 9.01957 17.5002 9.01916L15.5007 9.01331C15.2246 9.0129 15.0011 8.78872 15.0015 8.51257Z" fill="black"/>
    <path fill-rule="evenodd" clip-rule="evenodd" d="M1.99951 11.5094C1.99951 11.2333 2.22337 11.0094 2.49951 11.0094H5.5C5.77614 11.0094 6 11.2333 6 11.5094C6 11.7855 5.77614 12.0094 5.5 12.0094H2.49951C2.22337 12.0094 1.99951 11.7855 1.99951 11.5094Z" fill="black"/>
    <path fill-rule="evenodd" clip-rule="evenodd" d="M14.0005 11.5172C14.0005 11.2411 14.2243 11.0172 14.5005 11.0172H17.501C17.7771 11.0172 18.001 11.2411 18.001 11.5172C18.001 11.7934 17.7771 12.0172 17.501 12.0172H14.5005C14.2243 12.0172 14.0005 11.7934 14.0005 11.5172Z" fill="black"/>
    <path d="M14.0464 6.99974L12.4019 13.0003H11.2762L10.1339 8.80324C10.0865 8.62471 10.0572 8.42943 10.046 8.21742H10.0293C10.0153 8.41548 9.98186 8.60797 9.92885 8.79487L8.78231 13.0003H7.63158L5.95361 6.99974H7.04576L8.13372 11.3934C8.17835 11.5775 8.20625 11.77 8.21741 11.9709H8.23833C8.24949 11.8286 8.28854 11.6361 8.35549 11.3934L9.58573 6.99974H10.6109L11.7491 11.4269C11.7881 11.5775 11.8174 11.7561 11.837 11.9625H11.8537C11.8621 11.823 11.8942 11.6389 11.9499 11.4102L13.017 6.99974H14.0464Z" fill="black"/>
</svg>
