<svg xmlns="http://www.w3.org/2000/svg">
    <symbol id="arrow-down" x="0px" y="0px"
	 viewBox="0 0 16 16" style="enable-background:new 0 0 16 16;" xml:space="preserve">
        <style type="text/css">
	        .AltRed{fill:#D11C1C;}
	        .st0{opacity:0.5;}
        </style>
        <polygon class="AltRed" points="1,8 8,15 15,8 10,8 10,1 6,1 6,8 "/>
    </symbol>
    <symbol id="arrow-down-right" x="0px" y="0px"
	 viewBox="0 0 16 16" style="enable-background:new 0 0 16 16;" xml:space="preserve">
        <style type="text/css">
	        .AltYellow{fill:#FFB115;}
	        .st0{opacity:0.5;}
        </style>
        <path class="AltYellow" d="M14,5v9H5l3-3L1.98,5.02L5,2l6,6C11,8,14.08,4.92,14,5z"/>
    </symbol>
    <symbol id="arrow-right" x="0px" y="0px"
	 viewBox="0 0 16 16" style="enable-background:new 0 0 16 16;" xml:space="preserve">
        <style type="text/css">
	        .AltYellow{fill:#FFB115;}
	        .st0{opacity:0.5;}
        </style>
        <polygon class="AltYellow" points="8,1 15,8 8,15 8,10 1,10 1,6 8,6 "/>
        <polygon class="AltYellow" points="9,9 2,9 2,7 9,7 9,3.41 13.59,8 9,12.59 "/>
    </symbol>
    <symbol id="arrow-up" x="0px" y="0px"
	 viewBox="0 0 16 16" style="enable-background:new 0 0 16 16;" xml:space="preserve">
        <style type="text/css">
	        .AltGreen{fill:#039C23;}
	        .st0{opacity:0.5;}
        </style>
        <polygon class="AltGreen" points="1,8 8,1 15,8 10,8 10,15 6,15 6,8 "/>
    </symbol>
    <symbol id="arrow-up-right" x="0px" y="0px"
	 viewBox="0 0 16 16" style="enable-background:new 0 0 16 16;" xml:space="preserve">
        <style type="text/css">
	        .AltYellow{fill:#FFB115;}
	        .st0{opacity:0.5;}
        </style>
        <path class="AltYellow" d="M2,11l3,3l6-6l3,3V2H5l3,3C8,5,2,11.03,2,11z"/>
    </symbol>
    <symbol id="arrow-down-fluent" width="20" height="20" viewBox="0 0 20 20">
        <path d="M16.8664 10.8371C17.0526 10.6332 17.0382 10.3169 16.8342 10.1307C16.6303 9.94456 16.314 9.95895 16.1278 10.1629L10.4971 16.3307V2.5C10.4971 2.22386 10.2733 2 9.99712 2C9.72097 2 9.49712 2.22386 9.49712 2.5V16.3279L3.86903 10.1629C3.68285 9.95895 3.36659 9.94456 3.16265 10.1307C2.95871 10.3169 2.94431 10.6332 3.13049 10.8371L9.44454 17.7535C9.5723 17.8934 9.73984 17.9732 9.91298 17.993C9.94033 17.9976 9.96844 18 9.99712 18C10.024 18 10.0504 17.9979 10.0761 17.9938C10.252 17.9756 10.4227 17.8955 10.5523 17.7535L16.8664 10.8371Z"/>
    </symbol>
    <symbol id="arrow-down-right-fluent" width="20" height="20" viewBox="0 0 20 20">
        <path d="M8.50005 16C8.2239 16 8.00005 16.2239 8.00005 16.5C8.00005 16.7761 8.2239 17 8.50005 17H16.5C16.7761 17 17 16.7761 17 16.5V8.5C17 8.22386 16.7761 8 16.5 8C16.2239 8 16 8.22386 16 8.5V15.2929L3.85355 3.14645C3.65829 2.95118 3.34171 2.95119 3.14645 3.14645C2.95118 3.34171 2.95119 3.65829 3.14645 3.85355L15.2929 16H8.50005Z"/>
    </symbol>
    <symbol id="arrow-right-fluent" width="20" height="20" viewBox="0 0 20 20">
        <path d="M10.8371 3.13074C10.6332 2.94456 10.3169 2.95895 10.1307 3.16289C9.94456 3.36683 9.95895 3.68309 10.1629 3.86927L16.3307 9.5H2.5C2.22386 9.5 2 9.72386 2 10C2 10.2761 2.22386 10.5 2.5 10.5H16.3279L10.1629 16.1281C9.95895 16.3143 9.94456 16.6305 10.1307 16.8345C10.3169 17.0384 10.6332 17.0528 10.8371 16.8666L17.7535 10.5526C17.8934 10.4248 17.9732 10.2573 17.993 10.0841C17.9976 10.0568 18 10.0287 18 10C18 9.97313 17.9979 9.94675 17.9938 9.92103C17.9756 9.74512 17.8955 9.57446 17.7535 9.44478L10.8371 3.13074Z"/>
    </symbol>
    <symbol id="arrow-up-fluent" width="20" height="20" viewBox="0 0 20 20">
        <path d="M3.13196 9.16167C2.94578 9.36561 2.96017 9.68186 3.16412 9.86804C3.36806 10.0542 3.68431 10.0398 3.87049 9.83589L9.50122 3.66803L9.50122 17.4988C9.50122 17.7749 9.72508 17.9988 10.0012 17.9988C10.2774 17.9988 10.5012 17.7749 10.5012 17.4988L10.5012 3.67092L16.1293 9.83589C16.3155 10.0398 16.6317 10.0542 16.8357 9.86804C17.0396 9.68186 17.054 9.36561 16.8678 9.16167L10.5538 2.24532C10.426 2.10537 10.2585 2.02554 10.0854 2.00583C10.058 2.00119 10.0299 1.99878 10.0012 1.99878C9.97435 1.99878 9.94797 2.0009 9.92225 2.00498C9.74634 2.02316 9.57568 2.10327 9.446 2.24532L3.13196 9.16167Z"/>
    </symbol>
    <symbol id="arrow-up-right-fluent" width="20" height="20" viewBox="0 0 20 20">
        <path d="M8.50005 4C8.2239 4 8.00005 3.77614 8.00005 3.5C8.00005 3.22386 8.2239 3 8.50005 3H16.5C16.7761 3 17 3.22386 17 3.5V11.5C17 11.7761 16.7761 12 16.5 12C16.2239 12 16 11.7761 16 11.5V4.7071L3.85355 16.8536C3.65829 17.0488 3.34171 17.0488 3.14645 16.8536C2.95118 16.6583 2.95119 16.3417 3.14645 16.1464L15.2929 4H8.50005Z"/>
    </symbol>
</svg>
