<svg width="16" height="16" viewBox="0 0 16 16" xmlns="http://www.w3.org/2000/svg">
    <path d="M8.00002 0C6.60465 0 5.47371 1.13095 5.47371 2.52632V7.57895C5.47371 8.97432 6.60465 10.1053 8.00002 10.1053C9.39539 10.1053 10.5263 8.97432 10.5263 7.57895V2.52632C10.5263 1.13095 9.39539 0 8.00002 0ZM2.10529 7.57895C2.10529 10.5476 4.30265 12.9964 7.15792 13.4062V16H8.84213V13.4062C11.6974 12.9964 13.8948 10.5476 13.8948 7.57895H12.2105C12.2105 9.904 10.3251 11.7895 8.00002 11.7895C5.67497 11.7895 3.7895 9.904 3.7895 7.57895H2.10529Z" />
</svg>
