<svg width="16" height="16" viewBox="0 0 16 16" xmlns="http://www.w3.org/2000/svg">
    <g clip-path="url(#clip0_2332_1187)">
        <path d="M16 12.1C16 11.2236 15.2764 10.5 14.4 10.5L1.6 10.5C0.723635 10.5 1.43214e-07 11.2236 1.04907e-07 12.1L0 14.5H1.6L1.6 12.1L14.4 12.1V14.5H16V12.1ZM16 1.5L14.4 1.5V3.9L1.6 3.9L1.6 1.5L5.68248e-07 1.5L4.63341e-07 3.9C4.25034e-07 4.77636 0.723636 5.5 1.6 5.5L14.4 5.5C15.2745 5.5 16 4.77445 16 3.9V1.5Z" />
        <path d="M16 7.3269H14.5455V8.78145H16V7.3269ZM13.0909 7.3269H11.6364L11.6364 8.78145H13.0909V7.3269ZM10.1818 7.3269H8.72729V8.78145L10.1818 8.78145V7.3269ZM7.27275 7.3269H5.8182V8.78145H7.27275V7.3269ZM4.36365 7.3269H2.9091V8.78145H4.36365V7.3269ZM1.45455 7.3269H8.29409e-07L7.65828e-07 8.78145H1.45455V7.3269Z" />
    </g>
    <defs>
        <clipPath id="clip0_2332_1187">
            <rect width="16" height="16" fill="white" transform="translate(16) rotate(90)"/>
        </clipPath>
    </defs>
</svg>
